# xmcd
#
# Track frame offsets:
#	150
#	14198
#	29808
#	48315
#	65618
#	83919
#	106110
#	120788
#	138454
#	156657
#
# Disc length: 2321 seconds
#
# Revision: 0
# Processed by: cddbd v1.5.2PL0 Copyright (c) Steve Scherf et al.
# Submitted via: dBpowerAMP V4.0
#
DISCID=8a090f0a
DTITLE=Danny Gokey - My Best Days
DYEAR=1900
DGENRE=Country
TTITLE0=My Best Days Are Ahead Of Me
TTITLE1=Like That's A Bad Thing
TTITLE2=I Still Believe
TTITLE3=Tiny Life
TTITLE4=Get Away
TTITLE5=It's Only
TTITLE6=Life On Ya
TTITLE7=Crazy Not To
TTITLE8=Be Somebody
TTITLE9=I Will Not Say Goodbye
EXTD=
EXTT0=
EXTT1=
EXTT2=
EXTT3=
EXTT4=
EXTT5=
EXTT6=
EXTT7=
EXTT8=
EXTT9=
PLAYORDER=
